<svg id="Google_Meet-Logo.wine" xmlns="http://www.w3.org/2000/svg" width="48" height="39.493" viewBox="0 0 48 39.493">
  <path id="Tracé_330" data-name="Tracé 330" d="M27.151,19.746l4.679,5.348,6.291,4.021,1.1-9.336-1.1-9.127-6.412,3.532Z" fill="#00832d"/>
  <path id="Tracé_331" data-name="Tracé 331" d="M0,28.248V36.2a3.29,3.29,0,0,0,3.291,3.291h7.953l1.646-6.012-1.646-5.233L5.787,26.6Z" fill="#0066da"/>
  <path id="Tracé_332" data-name="Tracé 332" d="M11.244,0,0,11.244,5.787,12.89l5.458-1.646,1.618-5.161Z" fill="#e94235"/>
  <path id="Tracé_333" data-name="Tracé 333" d="M11.244,11.244H0v17H11.244Z" fill="#2684fc"/>
  <path id="Tracé_334" data-name="Tracé 334" d="M45.307,4.761l-7.185,5.891V29.115l7.218,5.918a1.647,1.647,0,0,0,2.66-1.3V6.034a1.648,1.648,0,0,0-2.693-1.273ZM27.151,19.746v8.5H11.244V39.493H34.83A3.29,3.29,0,0,0,38.121,36.2V29.115Z" fill="#00ac47"/>
  <path id="Tracé_335" data-name="Tracé 335" d="M34.83,0H11.244V11.244H27.151v8.5l10.97-9.089V3.291A3.29,3.29,0,0,0,34.83,0Z" fill="#ffba00"/>
</svg>
