<svg id="Composant_5_2" data-name="Composant 5 – 2" xmlns="http://www.w3.org/2000/svg" width="100" height="100" viewBox="0 0 100 100">
  <rect id="IMG_4082" width="100" height="100" rx="10" fill="none"/>
  <path id="Tracé_471" data-name="Tracé 471" d="M19.04,1.28Q10,1.28,5.76-3.28T1.52-18.4A64.429,64.429,0,0,1,4.36-36.48a41.818,41.818,0,0,1,9.12-16.6A20.607,20.607,0,0,1,29.44-60q6,0,9.68,2.64t3.68,8.08a9.351,9.351,0,0,1-1.36,5.4,4.8,4.8,0,0,1-4.24,1.96A5.551,5.551,0,0,1,32.64-44a6.283,6.283,0,0,0,2.56-2.88,9.614,9.614,0,0,0,1.12-4.48,5.235,5.235,0,0,0-1.16-3.52,4.635,4.635,0,0,0-3.72-1.36q-4.24,0-8.08,5.8a49.713,49.713,0,0,0-6.2,14.6A65.41,65.41,0,0,0,14.8-18.88q0,6.08,2.08,9.28T24.4-6.4a18.617,18.617,0,0,0,8.72-2.08A20.2,20.2,0,0,0,40-14.4l1.84.8a21.125,21.125,0,0,1-5.92,8.4,26.022,26.022,0,0,1-8.4,4.92A25.814,25.814,0,0,1,19.04,1.28Z" transform="translate(17 80)" fill="#8736aa"/>
  <path id="Tracé_470" data-name="Tracé 470" d="M1.35-1.975H10.1L9.675,0H.9Z" transform="translate(44 53)" fill="#8736aa"/>
  <path id="Tracé_469" data-name="Tracé 469" d="M19.04-61.28q-9.04,0-13.28,4.56T1.52-41.6A64.429,64.429,0,0,0,4.36-23.52a41.818,41.818,0,0,0,9.12,16.6A20.607,20.607,0,0,0,29.44,0q6,0,9.68-2.64t3.68-8.08a9.351,9.351,0,0,0-1.36-5.4,4.8,4.8,0,0,0-4.24-1.96A5.551,5.551,0,0,0,32.64-16a6.283,6.283,0,0,1,2.56,2.88,9.614,9.614,0,0,1,1.12,4.48,5.235,5.235,0,0,1-1.16,3.52,4.635,4.635,0,0,1-3.72,1.36q-4.24,0-8.08-5.8a49.713,49.713,0,0,1-6.2-14.6A65.41,65.41,0,0,1,14.8-41.12q0-6.08,2.08-9.28t7.52-3.2a18.617,18.617,0,0,1,8.72,2.08A20.2,20.2,0,0,1,40-45.6l1.84-.8a21.125,21.125,0,0,0-5.92-8.4,26.022,26.022,0,0,0-8.4-4.92A25.814,25.814,0,0,0,19.04-61.28Z" transform="translate(82 20) rotate(180)" fill="#8736aa"/>
</svg>
