<svg width="172" height="172" viewBox="0 0 172 172" fill="none" xmlns="http://www.w3.org/2000/svg">
<circle cx="86" cy="86" r="86" fill="#FFFDFA"/>
<path d="M91.8 122.8C84.8 122.8 78.4667 121.267 72.8 118.2C67.2 115.067 62.8 110.8 59.6 105.4C56.4 99.9333 54.8 93.8 54.8 87C54.8 80.2 56.4 74.1 59.6 68.7C62.8 63.2333 67.2333 58.9667 72.9 55.9C78.5667 52.7667 84.9 51.2 91.9 51.2C97.3667 51.2 102.367 52.1333 106.9 54C111.433 55.8 115.3 58.5 118.5 62.1L112 68.4C106.733 62.8667 100.167 60.1 92.3 60.1C87.1 60.1 82.4 61.2667 78.2 63.6C74 65.9333 70.7 69.1667 68.3 73.3C65.9667 77.3667 64.8 81.9333 64.8 87C64.8 92.0667 65.9667 96.6667 68.3 100.8C70.7 104.867 74 108.067 78.2 110.4C82.4 112.733 87.1 113.9 92.3 113.9C100.1 113.9 106.667 111.1 112 105.5L118.5 111.8C115.3 115.4 111.4 118.133 106.8 120C102.267 121.867 97.2667 122.8 91.8 122.8Z" fill="#B88C46"/>
<circle cx="86.5" cy="86.5" r="81.5" stroke="#B88C46" stroke-width="2"/>
</svg>
