<svg xmlns="http://www.w3.org/2000/svg" xmlns:xlink="http://www.w3.org/1999/xlink" width="136" height="136" viewBox="0 0 136 136">
  <defs>
    <linearGradient id="linear-gradient" x1="0.937" y1="0.965" x2="0.067" y2="0.05" gradientUnits="objectBoundingBox">
      <stop offset="0" stop-color="#002892"/>
      <stop offset="1" stop-color="#1585d7"/>
    </linearGradient>
    <filter id="IMG_4082" x="0" y="0" width="126" height="126" filterUnits="userSpaceOnUse">
      <feOffset dy="3" input="SourceAlpha"/>
      <feGaussianBlur stdDeviation="3" result="blur"/>
      <feFlood flood-opacity="0.161"/>
      <feComposite operator="in" in2="blur"/>
      <feComposite in="SourceGraphic"/>
    </filter>
    <filter id="IMG_4082-2" x="10" y="10" width="126" height="126" filterUnits="userSpaceOnUse">
      <feOffset dy="3" input="SourceAlpha"/>
      <feGaussianBlur stdDeviation="3" result="blur-2"/>
      <feFlood flood-opacity="0.161"/>
      <feComposite operator="in" in2="blur-2"/>
      <feComposite in="SourceGraphic"/>
    </filter>
  </defs>
  <g id="Composant_428_1" data-name="Composant 428 – 1" transform="translate(9 6)">
    <g transform="matrix(1, 0, 0, 1, -9, -6)" filter="url(#IMG_4082)">
      <rect id="IMG_4082-3" data-name="IMG_4082" width="108" height="108" rx="10" transform="translate(9 6)" fill="url(#linear-gradient)"/>
    </g>
    <g transform="matrix(1, 0, 0, 1, -9, -6)" filter="url(#IMG_4082-2)">
      <rect id="IMG_4082-4" data-name="IMG_4082" width="108" height="108" rx="10" transform="translate(19 16)" fill="#fff"/>
    </g>
    <path id="Tracé_109" data-name="Tracé 109" d="M-4.32,7.83q-6.39,0-10.3-3.195A18.04,18.04,0,0,1-20.3-3.6,31.79,31.79,0,0,1-22.05-14.13a49.6,49.6,0,0,1,2.16-14.31A65.321,65.321,0,0,1-14-42.165,61.617,61.617,0,0,1-5.49-53.775a41.471,41.471,0,0,1,10.035-8.01,21.291,21.291,0,0,1,10.4-2.925,9.585,9.585,0,0,1,5.985,1.755Q23.22-61.2,23.22-56.97a22.566,22.566,0,0,1-.9,5.9,33.369,33.369,0,0,1-2.43,6.3,21.656,21.656,0,0,1-3.375,5A5.217,5.217,0,0,1,12.78-37.8a2.926,2.926,0,0,1-1.485-.45A3.5,3.5,0,0,1,9.99-39.87Q11.34-41.4,13-43.695t3.195-4.86a32.505,32.505,0,0,0,2.475-5.04,12.478,12.478,0,0,0,.945-4.365,4.15,4.15,0,0,0-1.035-2.925A4.4,4.4,0,0,0,15.21-62.01a13.534,13.534,0,0,0-8.055,3.15,41.134,41.134,0,0,0-8.1,8.415A73.4,73.4,0,0,0-8.01-38.7a76.127,76.127,0,0,0-4.995,13.23A48.822,48.822,0,0,0-14.85-12.6a27.875,27.875,0,0,0,1.26,8.415,13.93,13.93,0,0,0,4.1,6.48A10.748,10.748,0,0,0-2.16,4.77a18.976,18.976,0,0,0,9.5-2.7A35.054,35.054,0,0,0,16.02-5.04a37.586,37.586,0,0,0,6.3-9.54l1.26.9a53.45,53.45,0,0,1-7.2,10.755A35.179,35.179,0,0,1,6.93,4.9,22.641,22.641,0,0,1-4.32,7.83Z" transform="translate(64 93)" fill="#1585d7"/>
  </g>
</svg>
