<svg width="604" height="172" viewBox="0 0 604 172" fill="none" xmlns="http://www.w3.org/2000/svg">
<path d="M216.212 77.408C213.787 77.408 211.588 76.8867 209.616 75.844C207.667 74.7787 206.125 73.3167 204.992 71.458C203.881 69.5767 203.326 67.4573 203.326 65.1C203.326 62.7427 203.881 60.6347 204.992 58.776C206.125 56.8947 207.667 55.4327 209.616 54.39C211.588 53.3247 213.798 52.792 216.246 52.792C218.309 52.792 220.167 53.1547 221.822 53.88C223.499 54.6053 224.905 55.648 226.038 57.008L222.502 60.272C220.893 58.4133 218.898 57.484 216.518 57.484C215.045 57.484 213.73 57.8127 212.574 58.47C211.418 59.1047 210.511 60 209.854 61.156C209.219 62.312 208.902 63.6267 208.902 65.1C208.902 66.5733 209.219 67.888 209.854 69.044C210.511 70.2 211.418 71.1067 212.574 71.764C213.73 72.3987 215.045 72.716 216.518 72.716C218.898 72.716 220.893 71.7753 222.502 69.894L226.038 73.158C224.905 74.5407 223.499 75.5947 221.822 76.32C220.145 77.0453 218.275 77.408 216.212 77.408ZM247.302 67.922C247.302 67.99 247.268 68.466 247.2 69.35H233.362C233.611 70.4833 234.2 71.3787 235.13 72.036C236.059 72.6933 237.215 73.022 238.598 73.022C239.55 73.022 240.388 72.886 241.114 72.614C241.862 72.3193 242.553 71.866 243.188 71.254L246.01 74.314C244.287 76.286 241.771 77.272 238.462 77.272C236.399 77.272 234.574 76.8753 232.988 76.082C231.401 75.266 230.177 74.144 229.316 72.716C228.454 71.288 228.024 69.6673 228.024 67.854C228.024 66.0633 228.443 64.454 229.282 63.026C230.143 61.5753 231.31 60.4533 232.784 59.66C234.28 58.844 235.946 58.436 237.782 58.436C239.572 58.436 241.193 58.8213 242.644 59.592C244.094 60.3627 245.228 61.4733 246.044 62.924C246.882 64.352 247.302 66.018 247.302 67.922ZM237.816 62.448C236.614 62.448 235.606 62.788 234.79 63.468C233.974 64.148 233.475 65.0773 233.294 66.256H242.304C242.122 65.1 241.624 64.182 240.808 63.502C239.992 62.7993 238.994 62.448 237.816 62.448ZM239.176 51.466H244.888L238.734 56.362H234.586L239.176 51.466ZM250.833 51.772H256.137V77H250.833V51.772ZM261.059 58.708H266.363V77H261.059V58.708ZM263.711 56.158C262.737 56.158 261.943 55.8747 261.331 55.308C260.719 54.7413 260.413 54.0387 260.413 53.2C260.413 52.3613 260.719 51.6587 261.331 51.092C261.943 50.5253 262.737 50.242 263.711 50.242C264.686 50.242 265.479 50.514 266.091 51.058C266.703 51.602 267.009 52.282 267.009 53.098C267.009 53.982 266.703 54.7187 266.091 55.308C265.479 55.8747 264.686 56.158 263.711 56.158ZM282.404 58.436C284.671 58.436 286.495 59.116 287.878 60.476C289.283 61.836 289.986 63.8533 289.986 66.528V77H284.682V67.344C284.682 65.8933 284.365 64.8167 283.73 64.114C283.095 63.3887 282.177 63.026 280.976 63.026C279.639 63.026 278.573 63.4453 277.78 64.284C276.987 65.1 276.59 66.324 276.59 67.956V77H271.286V58.708H276.352V60.85C277.055 60.0793 277.927 59.49 278.97 59.082C280.013 58.6513 281.157 58.436 282.404 58.436ZM312.911 67.922C312.911 67.99 312.877 68.466 312.809 69.35H298.971C299.22 70.4833 299.81 71.3787 300.739 72.036C301.668 72.6933 302.824 73.022 304.207 73.022C305.159 73.022 305.998 72.886 306.723 72.614C307.471 72.3193 308.162 71.866 308.797 71.254L311.619 74.314C309.896 76.286 307.38 77.272 304.071 77.272C302.008 77.272 300.184 76.8753 298.597 76.082C297.01 75.266 295.786 74.144 294.925 72.716C294.064 71.288 293.633 69.6673 293.633 67.854C293.633 66.0633 294.052 64.454 294.891 63.026C295.752 61.5753 296.92 60.4533 298.393 59.66C299.889 58.844 301.555 58.436 303.391 58.436C305.182 58.436 306.802 58.8213 308.253 59.592C309.704 60.3627 310.837 61.4733 311.653 62.924C312.492 64.352 312.911 66.018 312.911 67.922ZM303.425 62.448C302.224 62.448 301.215 62.788 300.399 63.468C299.583 64.148 299.084 65.0773 298.903 66.256H307.913C307.732 65.1 307.233 64.182 306.417 63.502C305.601 62.7993 304.604 62.448 303.425 62.448ZM337.835 77.408C335.41 77.408 333.211 76.8867 331.239 75.844C329.29 74.7787 327.748 73.3167 326.615 71.458C325.504 69.5767 324.949 67.4573 324.949 65.1C324.949 62.7427 325.504 60.6347 326.615 58.776C327.748 56.8947 329.29 55.4327 331.239 54.39C333.211 53.3247 335.421 52.792 337.869 52.792C339.932 52.792 341.79 53.1547 343.445 53.88C345.122 54.6053 346.528 55.648 347.661 57.008L344.125 60.272C342.516 58.4133 340.521 57.484 338.141 57.484C336.668 57.484 335.353 57.8127 334.197 58.47C333.041 59.1047 332.134 60 331.477 61.156C330.842 62.312 330.525 63.6267 330.525 65.1C330.525 66.5733 330.842 67.888 331.477 69.044C332.134 70.2 333.041 71.1067 334.197 71.764C335.353 72.3987 336.668 72.716 338.141 72.716C340.521 72.716 342.516 71.7753 344.125 69.894L347.661 73.158C346.528 74.5407 345.122 75.5947 343.445 76.32C341.768 77.0453 339.898 77.408 337.835 77.408ZM359.08 77.272C357.153 77.272 355.419 76.8753 353.878 76.082C352.359 75.266 351.169 74.144 350.308 72.716C349.446 71.288 349.016 69.6673 349.016 67.854C349.016 66.0407 349.446 64.42 350.308 62.992C351.169 61.564 352.359 60.4533 353.878 59.66C355.419 58.844 357.153 58.436 359.08 58.436C361.006 58.436 362.729 58.844 364.248 59.66C365.766 60.4533 366.956 61.564 367.818 62.992C368.679 64.42 369.11 66.0407 369.11 67.854C369.11 69.6673 368.679 71.288 367.818 72.716C366.956 74.144 365.766 75.266 364.248 76.082C362.729 76.8753 361.006 77.272 359.08 77.272ZM359.08 72.92C360.44 72.92 361.55 72.4667 362.412 71.56C363.296 70.6307 363.738 69.3953 363.738 67.854C363.738 66.3127 363.296 65.0887 362.412 64.182C361.55 63.2527 360.44 62.788 359.08 62.788C357.72 62.788 356.598 63.2527 355.714 64.182C354.83 65.0887 354.388 66.3127 354.388 67.854C354.388 69.3953 354.83 70.6307 355.714 71.56C356.598 72.4667 357.72 72.92 359.08 72.92ZM378.809 77.272C377.29 77.272 375.806 77.0907 374.355 76.728C372.904 76.3427 371.748 75.8667 370.887 75.3L372.655 71.492C373.471 72.0133 374.457 72.444 375.613 72.784C376.769 73.1013 377.902 73.26 379.013 73.26C381.257 73.26 382.379 72.7047 382.379 71.594C382.379 71.0727 382.073 70.6987 381.461 70.472C380.849 70.2453 379.908 70.0527 378.639 69.894C377.143 69.6673 375.908 69.4067 374.933 69.112C373.958 68.8173 373.108 68.296 372.383 67.548C371.68 66.8 371.329 65.7347 371.329 64.352C371.329 63.196 371.658 62.176 372.315 61.292C372.995 60.3853 373.97 59.6827 375.239 59.184C376.531 58.6853 378.05 58.436 379.795 58.436C381.087 58.436 382.368 58.5833 383.637 58.878C384.929 59.15 385.994 59.5353 386.833 60.034L385.065 63.808C383.456 62.9013 381.699 62.448 379.795 62.448C378.662 62.448 377.812 62.6067 377.245 62.924C376.678 63.2413 376.395 63.6493 376.395 64.148C376.395 64.7147 376.701 65.1113 377.313 65.338C377.925 65.5647 378.9 65.78 380.237 65.984C381.733 66.2333 382.957 66.5053 383.909 66.8C384.861 67.072 385.688 67.582 386.391 68.33C387.094 69.078 387.445 70.1207 387.445 71.458C387.445 72.5913 387.105 73.6 386.425 74.484C385.745 75.368 384.748 76.0593 383.433 76.558C382.141 77.034 380.6 77.272 378.809 77.272ZM401.836 58.436C404.102 58.436 405.927 59.116 407.31 60.476C408.715 61.836 409.418 63.8533 409.418 66.528V77H404.114V67.344C404.114 65.8933 403.796 64.8167 403.162 64.114C402.527 63.3887 401.609 63.026 400.408 63.026C399.07 63.026 398.005 63.4453 397.212 64.284C396.418 65.1 396.022 66.324 396.022 67.956V77H390.718V58.708H395.784V60.85C396.486 60.0793 397.359 59.49 398.402 59.082C399.444 58.6513 400.589 58.436 401.836 58.436ZM432.343 67.922C432.343 67.99 432.309 68.466 432.241 69.35H418.403C418.652 70.4833 419.241 71.3787 420.171 72.036C421.1 72.6933 422.256 73.022 423.639 73.022C424.591 73.022 425.429 72.886 426.155 72.614C426.903 72.3193 427.594 71.866 428.229 71.254L431.051 74.314C429.328 76.286 426.812 77.272 423.503 77.272C421.44 77.272 419.615 76.8753 418.029 76.082C416.442 75.266 415.218 74.144 414.357 72.716C413.495 71.288 413.065 69.6673 413.065 67.854C413.065 66.0633 413.484 64.454 414.323 63.026C415.184 61.5753 416.351 60.4533 417.825 59.66C419.321 58.844 420.987 58.436 422.823 58.436C424.613 58.436 426.234 58.8213 427.685 59.592C429.135 60.3627 430.269 61.4733 431.085 62.924C431.923 64.352 432.343 66.018 432.343 67.922ZM422.857 62.448C421.655 62.448 420.647 62.788 419.831 63.468C419.015 64.148 418.516 65.0773 418.335 66.256H427.345C427.163 65.1 426.665 64.182 425.849 63.502C425.033 62.7993 424.035 62.448 422.857 62.448ZM442.754 58.436C445.587 58.436 447.763 59.116 449.282 60.476C450.8 61.8133 451.56 63.842 451.56 66.562V77H446.596V74.722C445.598 76.422 443.74 77.272 441.02 77.272C439.614 77.272 438.39 77.034 437.348 76.558C436.328 76.082 435.546 75.4247 435.002 74.586C434.458 73.7473 434.186 72.7953 434.186 71.73C434.186 70.03 434.82 68.6927 436.09 67.718C437.382 66.7433 439.365 66.256 442.04 66.256H446.256C446.256 65.1 445.904 64.216 445.202 63.604C444.499 62.9693 443.445 62.652 442.04 62.652C441.065 62.652 440.102 62.8107 439.15 63.128C438.22 63.4227 437.427 63.8307 436.77 64.352L434.866 60.646C435.863 59.9433 437.053 59.3993 438.436 59.014C439.841 58.6287 441.28 58.436 442.754 58.436ZM442.346 73.702C443.252 73.702 444.057 73.498 444.76 73.09C445.462 72.6593 445.961 72.036 446.256 71.22V69.35H442.618C440.442 69.35 439.354 70.064 439.354 71.492C439.354 72.172 439.614 72.716 440.136 73.124C440.68 73.5093 441.416 73.702 442.346 73.702ZM474.788 58.708V77H469.756V74.824C469.053 75.6173 468.215 76.2293 467.24 76.66C466.265 77.068 465.211 77.272 464.078 77.272C461.675 77.272 459.771 76.5807 458.366 75.198C456.961 73.8153 456.258 71.764 456.258 69.044V58.708H461.562V68.262C461.562 71.2087 462.797 72.682 465.268 72.682C466.537 72.682 467.557 72.274 468.328 71.458C469.099 70.6193 469.484 69.384 469.484 67.752V58.708H474.788ZM479.022 65.304H488.644V69.554H479.022V65.304ZM508.068 71.9H497.018L494.91 77H489.266L499.874 53.2H505.314L515.956 77H510.176L508.068 71.9ZM506.334 67.718L502.56 58.606L498.786 67.718H506.334ZM541.478 58.436C543.767 58.436 545.58 59.116 546.918 60.476C548.278 61.8133 548.958 63.8307 548.958 66.528V77H543.654V67.344C543.654 65.8933 543.348 64.8167 542.736 64.114C542.146 63.3887 541.296 63.026 540.186 63.026C538.939 63.026 537.953 63.434 537.228 64.25C536.502 65.0433 536.14 66.2333 536.14 67.82V77H530.836V67.344C530.836 64.4653 529.68 63.026 527.368 63.026C526.144 63.026 525.169 63.434 524.444 64.25C523.718 65.0433 523.356 66.2333 523.356 67.82V77H518.052V58.708H523.118V60.816C523.798 60.0453 524.625 59.456 525.6 59.048C526.597 58.64 527.685 58.436 528.864 58.436C530.156 58.436 531.323 58.6967 532.366 59.218C533.408 59.7167 534.247 60.4533 534.882 61.428C535.63 60.476 536.57 59.7393 537.704 59.218C538.86 58.6967 540.118 58.436 541.478 58.436ZM564.524 58.436C566.224 58.436 567.765 58.8327 569.148 59.626C570.553 60.3967 571.652 61.496 572.446 62.924C573.239 64.3293 573.636 65.9727 573.636 67.854C573.636 69.7353 573.239 71.39 572.446 72.818C571.652 74.2233 570.553 75.3227 569.148 76.116C567.765 76.8867 566.224 77.272 564.524 77.272C562.189 77.272 560.353 76.5353 559.016 75.062V83.596H553.712V58.708H558.778V60.816C560.092 59.2293 562.008 58.436 564.524 58.436ZM563.606 72.92C564.966 72.92 566.076 72.4667 566.938 71.56C567.822 70.6307 568.264 69.3953 568.264 67.854C568.264 66.3127 567.822 65.0887 566.938 64.182C566.076 63.2527 564.966 62.788 563.606 62.788C562.246 62.788 561.124 63.2527 560.24 64.182C559.378 65.0887 558.948 66.3127 558.948 67.854C558.948 69.3953 559.378 70.6307 560.24 71.56C561.124 72.4667 562.246 72.92 563.606 72.92ZM577.186 58.708H582.49V77H577.186V58.708ZM579.838 56.158C578.864 56.158 578.07 55.8747 577.458 55.308C576.846 54.7413 576.54 54.0387 576.54 53.2C576.54 52.3613 576.846 51.6587 577.458 51.092C578.07 50.5253 578.864 50.242 579.838 50.242C580.813 50.242 581.606 50.514 582.218 51.058C582.83 51.602 583.136 52.282 583.136 53.098C583.136 53.982 582.83 54.7187 582.218 55.308C581.606 55.8747 580.813 56.158 579.838 56.158ZM593.567 77.272C592.048 77.272 590.564 77.0907 589.113 76.728C587.662 76.3427 586.506 75.8667 585.645 75.3L587.413 71.492C588.229 72.0133 589.215 72.444 590.371 72.784C591.527 73.1013 592.66 73.26 593.771 73.26C596.015 73.26 597.137 72.7047 597.137 71.594C597.137 71.0727 596.831 70.6987 596.219 70.472C595.607 70.2453 594.666 70.0527 593.397 69.894C591.901 69.6673 590.666 69.4067 589.691 69.112C588.716 68.8173 587.866 68.296 587.141 67.548C586.438 66.8 586.087 65.7347 586.087 64.352C586.087 63.196 586.416 62.176 587.073 61.292C587.753 60.3853 588.728 59.6827 589.997 59.184C591.289 58.6853 592.808 58.436 594.553 58.436C595.845 58.436 597.126 58.5833 598.395 58.878C599.687 59.15 600.752 59.5353 601.591 60.034L599.823 63.808C598.214 62.9013 596.457 62.448 594.553 62.448C593.42 62.448 592.57 62.6067 592.003 62.924C591.436 63.2413 591.153 63.6493 591.153 64.148C591.153 64.7147 591.459 65.1113 592.071 65.338C592.683 65.5647 593.658 65.78 594.995 65.984C596.491 66.2333 597.715 66.5053 598.667 66.8C599.619 67.072 600.446 67.582 601.149 68.33C601.852 69.078 602.203 70.1207 602.203 71.458C602.203 72.5913 601.863 73.6 601.183 74.484C600.503 75.368 599.506 76.0593 598.191 76.558C596.899 77.034 595.358 77.272 593.567 77.272Z" fill="black"/>
<path d="M215.699 101.094H218.324V114.561C218.324 116.055 217.992 117.299 217.326 118.293C216.661 119.286 215.777 120.034 214.674 120.535C213.58 121.027 212.391 121.273 211.105 121.273C209.757 121.273 208.535 121.027 207.441 120.535C206.357 120.034 205.495 119.286 204.857 118.293C204.229 117.299 203.914 116.055 203.914 114.561V101.094H206.525V114.561C206.525 115.6 206.717 116.456 207.1 117.131C207.482 117.805 208.016 118.307 208.699 118.635C209.392 118.963 210.194 119.127 211.105 119.127C212.026 119.127 212.828 118.963 213.512 118.635C214.204 118.307 214.742 117.805 215.125 117.131C215.508 116.456 215.699 115.6 215.699 114.561V101.094ZM229.776 101.094L234.561 108.723L239.346 101.094H242.422L236.133 110.951L242.573 121H239.469L234.561 113.221L229.653 121H226.549L232.989 110.951L226.7 101.094H229.776ZM269.154 121H264.997L265.025 118.854H269.154C270.575 118.854 271.76 118.557 272.708 117.965C273.656 117.363 274.367 116.525 274.841 115.449C275.324 114.365 275.566 113.098 275.566 111.648V110.432C275.566 109.292 275.429 108.281 275.155 107.396C274.882 106.503 274.481 105.751 273.952 105.141C273.424 104.521 272.777 104.051 272.011 103.732C271.254 103.413 270.384 103.254 269.4 103.254H264.915V101.094H269.4C270.703 101.094 271.892 101.312 272.968 101.75C274.043 102.178 274.969 102.803 275.743 103.623C276.527 104.434 277.129 105.419 277.548 106.576C277.967 107.725 278.177 109.019 278.177 110.459V111.648C278.177 113.089 277.967 114.387 277.548 115.545C277.129 116.693 276.523 117.673 275.73 118.484C274.946 119.296 273.998 119.92 272.886 120.357C271.783 120.786 270.539 121 269.154 121ZM266.405 101.094V121H263.767V101.094H266.405ZM293.498 121.273C292.468 121.273 291.533 121.1 290.695 120.754C289.865 120.398 289.15 119.902 288.548 119.264C287.956 118.626 287.5 117.869 287.181 116.994C286.862 116.119 286.703 115.162 286.703 114.123V113.549C286.703 112.346 286.88 111.275 287.236 110.336C287.591 109.388 288.074 108.586 288.685 107.93C289.296 107.273 289.989 106.777 290.763 106.439C291.538 106.102 292.34 105.934 293.17 105.934C294.227 105.934 295.138 106.116 295.904 106.48C296.679 106.845 297.312 107.355 297.804 108.012C298.296 108.659 298.661 109.424 298.898 110.309C299.135 111.184 299.254 112.141 299.254 113.18V114.314H288.207V112.25H296.724V112.059C296.688 111.402 296.551 110.764 296.314 110.145C296.086 109.525 295.722 109.014 295.22 108.613C294.719 108.212 294.035 108.012 293.17 108.012C292.595 108.012 292.067 108.135 291.584 108.381C291.101 108.618 290.686 108.973 290.339 109.447C289.993 109.921 289.724 110.5 289.533 111.184C289.341 111.867 289.246 112.656 289.246 113.549V114.123C289.246 114.825 289.341 115.486 289.533 116.105C289.733 116.716 290.02 117.254 290.394 117.719C290.777 118.184 291.237 118.548 291.775 118.812C292.322 119.077 292.942 119.209 293.634 119.209C294.528 119.209 295.284 119.027 295.904 118.662C296.524 118.298 297.066 117.81 297.531 117.199L299.062 118.416C298.743 118.899 298.338 119.359 297.845 119.797C297.353 120.234 296.747 120.59 296.027 120.863C295.316 121.137 294.473 121.273 293.498 121.273ZM316.42 117.076C316.42 116.712 316.338 116.374 316.174 116.064C316.019 115.745 315.695 115.458 315.203 115.203C314.72 114.939 313.991 114.711 313.016 114.52C312.195 114.346 311.452 114.141 310.787 113.904C310.131 113.667 309.57 113.38 309.105 113.043C308.65 112.706 308.299 112.309 308.053 111.854C307.807 111.398 307.684 110.865 307.684 110.254C307.684 109.671 307.811 109.119 308.066 108.6C308.331 108.08 308.7 107.62 309.174 107.219C309.657 106.818 310.236 106.503 310.91 106.275C311.585 106.048 312.337 105.934 313.166 105.934C314.351 105.934 315.363 106.143 316.201 106.562C317.04 106.982 317.682 107.542 318.129 108.244C318.576 108.937 318.799 109.707 318.799 110.555H316.27C316.27 110.145 316.146 109.748 315.9 109.365C315.663 108.973 315.312 108.65 314.848 108.395C314.392 108.139 313.831 108.012 313.166 108.012C312.464 108.012 311.895 108.121 311.457 108.34C311.029 108.549 310.714 108.818 310.514 109.146C310.322 109.475 310.227 109.821 310.227 110.186C310.227 110.459 310.272 110.705 310.363 110.924C310.464 111.133 310.637 111.329 310.883 111.512C311.129 111.685 311.475 111.849 311.922 112.004C312.368 112.159 312.938 112.314 313.631 112.469C314.843 112.742 315.841 113.07 316.625 113.453C317.409 113.836 317.992 114.305 318.375 114.861C318.758 115.417 318.949 116.092 318.949 116.885C318.949 117.532 318.812 118.124 318.539 118.662C318.275 119.2 317.887 119.665 317.377 120.057C316.876 120.439 316.274 120.74 315.572 120.959C314.88 121.169 314.1 121.273 313.234 121.273C311.931 121.273 310.828 121.041 309.926 120.576C309.023 120.111 308.34 119.51 307.875 118.771C307.41 118.033 307.178 117.254 307.178 116.434H309.721C309.757 117.126 309.958 117.678 310.322 118.088C310.687 118.489 311.133 118.776 311.662 118.949C312.191 119.113 312.715 119.195 313.234 119.195C313.927 119.195 314.506 119.104 314.971 118.922C315.445 118.74 315.805 118.489 316.051 118.17C316.297 117.851 316.42 117.486 316.42 117.076ZM330.62 106.207V121H328.077V106.207H330.62ZM327.885 102.283C327.885 101.873 328.008 101.527 328.254 101.244C328.51 100.962 328.883 100.82 329.375 100.82C329.858 100.82 330.228 100.962 330.483 101.244C330.747 101.527 330.879 101.873 330.879 102.283C330.879 102.675 330.747 103.012 330.483 103.295C330.228 103.568 329.858 103.705 329.375 103.705C328.883 103.705 328.51 103.568 328.254 103.295C328.008 103.012 327.885 102.675 327.885 102.283ZM349.864 106.207H352.161V120.686C352.161 121.989 351.897 123.101 351.368 124.021C350.839 124.942 350.101 125.639 349.153 126.113C348.214 126.596 347.13 126.838 345.899 126.838C345.389 126.838 344.787 126.756 344.095 126.592C343.411 126.437 342.736 126.168 342.071 125.785C341.415 125.411 340.863 124.906 340.417 124.268L341.743 122.764C342.363 123.511 343.01 124.031 343.684 124.322C344.368 124.614 345.042 124.76 345.708 124.76C346.51 124.76 347.203 124.609 347.786 124.309C348.369 124.008 348.82 123.561 349.139 122.969C349.468 122.385 349.632 121.665 349.632 120.809V109.461L349.864 106.207ZM339.679 113.768V113.48C339.679 112.35 339.811 111.325 340.075 110.404C340.348 109.475 340.736 108.677 341.237 108.012C341.748 107.346 342.363 106.836 343.083 106.48C343.803 106.116 344.614 105.934 345.516 105.934C346.446 105.934 347.257 106.098 347.95 106.426C348.652 106.745 349.244 107.214 349.727 107.834C350.22 108.445 350.607 109.183 350.889 110.049C351.172 110.915 351.368 111.895 351.477 112.988V114.246C351.377 115.331 351.181 116.306 350.889 117.172C350.607 118.038 350.22 118.776 349.727 119.387C349.244 119.997 348.652 120.467 347.95 120.795C347.248 121.114 346.428 121.273 345.489 121.273C344.605 121.273 343.803 121.087 343.083 120.713C342.372 120.339 341.761 119.815 341.251 119.141C340.74 118.466 340.348 117.673 340.075 116.762C339.811 115.841 339.679 114.843 339.679 113.768ZM342.208 113.48V113.768C342.208 114.506 342.281 115.199 342.427 115.846C342.582 116.493 342.814 117.062 343.124 117.555C343.443 118.047 343.848 118.434 344.341 118.717C344.833 118.99 345.421 119.127 346.104 119.127C346.943 119.127 347.636 118.949 348.182 118.594C348.729 118.238 349.162 117.769 349.481 117.186C349.809 116.602 350.065 115.969 350.247 115.285V111.99C350.147 111.489 349.992 111.006 349.782 110.541C349.582 110.067 349.317 109.648 348.989 109.283C348.67 108.91 348.274 108.613 347.8 108.395C347.326 108.176 346.77 108.066 346.132 108.066C345.439 108.066 344.842 108.212 344.341 108.504C343.848 108.786 343.443 109.178 343.124 109.68C342.814 110.172 342.582 110.746 342.427 111.402C342.281 112.049 342.208 112.742 342.208 113.48ZM364.132 109.365V121H361.603V106.207H363.995L364.132 109.365ZM363.53 113.043L362.478 113.002C362.487 111.99 362.637 111.056 362.929 110.199C363.221 109.333 363.631 108.581 364.159 107.943C364.688 107.305 365.317 106.813 366.046 106.467C366.784 106.111 367.6 105.934 368.493 105.934C369.223 105.934 369.879 106.034 370.462 106.234C371.045 106.426 371.542 106.736 371.952 107.164C372.372 107.592 372.691 108.148 372.909 108.832C373.128 109.507 373.238 110.331 373.238 111.307V121H370.695V111.279C370.695 110.505 370.581 109.885 370.353 109.42C370.125 108.946 369.792 108.604 369.355 108.395C368.917 108.176 368.379 108.066 367.741 108.066C367.113 108.066 366.538 108.199 366.019 108.463C365.508 108.727 365.066 109.092 364.693 109.557C364.328 110.021 364.041 110.555 363.831 111.156C363.631 111.749 363.53 112.378 363.53 113.043ZM388.818 121.273C387.788 121.273 386.854 121.1 386.015 120.754C385.186 120.398 384.47 119.902 383.869 119.264C383.276 118.626 382.821 117.869 382.502 116.994C382.183 116.119 382.023 115.162 382.023 114.123V113.549C382.023 112.346 382.201 111.275 382.556 110.336C382.912 109.388 383.395 108.586 384.005 107.93C384.616 107.273 385.309 106.777 386.084 106.439C386.858 106.102 387.66 105.934 388.49 105.934C389.547 105.934 390.459 106.116 391.224 106.48C391.999 106.845 392.632 107.355 393.125 108.012C393.617 108.659 393.981 109.424 394.218 110.309C394.455 111.184 394.574 112.141 394.574 113.18V114.314H383.527V112.25H392.045V112.059C392.008 111.402 391.871 110.764 391.634 110.145C391.407 109.525 391.042 109.014 390.541 108.613C390.039 108.212 389.356 108.012 388.49 108.012C387.916 108.012 387.387 108.135 386.904 108.381C386.421 108.618 386.006 108.973 385.66 109.447C385.313 109.921 385.045 110.5 384.853 111.184C384.662 111.867 384.566 112.656 384.566 113.549V114.123C384.566 114.825 384.662 115.486 384.853 116.105C385.054 116.716 385.341 117.254 385.714 117.719C386.097 118.184 386.558 118.548 387.095 118.812C387.642 119.077 388.262 119.209 388.955 119.209C389.848 119.209 390.604 119.027 391.224 118.662C391.844 118.298 392.386 117.81 392.851 117.199L394.382 118.416C394.063 118.899 393.658 119.359 393.166 119.797C392.673 120.234 392.067 120.59 391.347 120.863C390.636 121.137 389.793 121.273 388.818 121.273ZM405.656 108.531V121H403.127V106.207H405.588L405.656 108.531ZM410.277 106.125L410.264 108.477C410.054 108.431 409.854 108.404 409.662 108.395C409.48 108.376 409.27 108.367 409.033 108.367C408.45 108.367 407.935 108.458 407.488 108.641C407.042 108.823 406.663 109.078 406.354 109.406C406.044 109.734 405.798 110.126 405.615 110.582C405.442 111.029 405.328 111.521 405.273 112.059L404.562 112.469C404.562 111.576 404.649 110.737 404.822 109.953C405.005 109.169 405.283 108.477 405.656 107.875C406.03 107.264 406.504 106.79 407.078 106.453C407.661 106.107 408.354 105.934 409.156 105.934C409.339 105.934 409.548 105.956 409.785 106.002C410.022 106.038 410.186 106.079 410.277 106.125Z" fill="black"/>
<circle cx="86" cy="86" r="86" fill="#FFFDFA"/>
<path d="M91.8 122.8C84.8 122.8 78.4667 121.267 72.8 118.2C67.2 115.067 62.8 110.8 59.6 105.4C56.4 99.9333 54.8 93.8 54.8 87C54.8 80.2 56.4 74.1 59.6 68.7C62.8 63.2333 67.2333 58.9667 72.9 55.9C78.5667 52.7667 84.9 51.2 91.9 51.2C97.3667 51.2 102.367 52.1333 106.9 54C111.433 55.8 115.3 58.5 118.5 62.1L112 68.4C106.733 62.8667 100.167 60.1 92.3 60.1C87.1 60.1 82.4 61.2667 78.2 63.6C74 65.9333 70.7 69.1667 68.3 73.3C65.9667 77.3667 64.8 81.9333 64.8 87C64.8 92.0667 65.9667 96.6667 68.3 100.8C70.7 104.867 74 108.067 78.2 110.4C82.4 112.733 87.1 113.9 92.3 113.9C100.1 113.9 106.667 111.1 112 105.5L118.5 111.8C115.3 115.4 111.4 118.133 106.8 120C102.267 121.867 97.2667 122.8 91.8 122.8Z" fill="#B88C46"/>
<circle cx="86.5" cy="86.5" r="81.5" stroke="#B88C46" stroke-width="2"/>
</svg>
